<svg width="1200" height="800" viewBox="0 0 1200 800" fill="none" xmlns="http://www.w3.org/2000/svg">
  <defs>
    <linearGradient id="g1" x1="0" y1="0" x2="1" y2="1">
      <stop offset="0" stop-color="#1479E8" stop-opacity="0.16"/>
      <stop offset="1" stop-color="#1FA15C" stop-opacity="0.08"/>
    </linearGradient>
    <linearGradient id="g2" x1="1" y1="0" x2="0" y2="1">
      <stop offset="0" stop-color="#F39A1F" stop-opacity="0.14"/>
      <stop offset="1" stop-color="#1479E8" stop-opacity="0.07"/>
    </linearGradient>
  </defs>

  <rect width="1200" height="800" fill="#FFFFFF"/>
  <circle cx="1050" cy="130" r="170" fill="url(#g1)"/>
  <circle cx="180" cy="690" r="200" fill="url(#g2)"/>

  <g opacity="0.22" stroke="#0F5CCC" stroke-width="2" fill="none">
    <path d="M70 640H1130"/>
    <path d="M110 640V420H300V640"/>
    <path d="M335 640V370H590V640"/>
    <path d="M625 640V455H870V640"/>
    <path d="M905 640V330H1095V640"/>
    <path d="M175 420V380H235V420"/>
    <path d="M405 370V320H520V370"/>
    <path d="M690 455V410H805V455"/>
    <path d="M965 330V280H1035V330"/>
  </g>

  <g opacity="0.2" fill="#1FA15C">
    <circle cx="240" cy="250" r="8"/>
    <circle cx="265" cy="230" r="6"/>
    <circle cx="290" cy="248" r="7"/>
    <rect x="258" y="250" width="14" height="34" rx="6"/>

    <circle cx="840" cy="210" r="8"/>
    <circle cx="865" cy="190" r="6"/>
    <circle cx="890" cy="208" r="7"/>
    <rect x="858" y="210" width="14" height="34" rx="6"/>
  </g>
</svg>
