<svg width="1600" height="1000" viewBox="0 0 1600 1000" fill="none" xmlns="http://www.w3.org/2000/svg">
  <defs>
    <linearGradient id="sky" x1="0" y1="0" x2="1" y2="1">
      <stop offset="0" stop-color="#EAF3FF"/>
      <stop offset="0.55" stop-color="#F8FBFF"/>
      <stop offset="1" stop-color="#EEF9F1"/>
    </linearGradient>
    <linearGradient id="blueGlow" x1="0" y1="0" x2="1" y2="1">
      <stop offset="0" stop-color="#1E7CF2" stop-opacity="0.30"/>
      <stop offset="1" stop-color="#1E7CF2" stop-opacity="0"/>
    </linearGradient>
    <linearGradient id="greenGlow" x1="1" y1="0" x2="0" y2="1">
      <stop offset="0" stop-color="#1F9D55" stop-opacity="0.24"/>
      <stop offset="1" stop-color="#1F9D55" stop-opacity="0"/>
    </linearGradient>
    <linearGradient id="orangeGlow" x1="0" y1="1" x2="1" y2="0">
      <stop offset="0" stop-color="#F39A1F" stop-opacity="0.24"/>
      <stop offset="1" stop-color="#F39A1F" stop-opacity="0"/>
    </linearGradient>
    <linearGradient id="buildingBlue" x1="0" y1="0" x2="0" y2="1">
      <stop offset="0" stop-color="#1B6FE0"/>
      <stop offset="1" stop-color="#1550A8"/>
    </linearGradient>
    <linearGradient id="buildingGreen" x1="0" y1="0" x2="0" y2="1">
      <stop offset="0" stop-color="#27B164"/>
      <stop offset="1" stop-color="#17824A"/>
    </linearGradient>
    <linearGradient id="buildingOrange" x1="0" y1="0" x2="0" y2="1">
      <stop offset="0" stop-color="#FDB24F"/>
      <stop offset="1" stop-color="#EA8F12"/>
    </linearGradient>
  </defs>

  <rect width="1600" height="1000" fill="url(#sky)"/>

  <circle cx="260" cy="190" r="220" fill="url(#blueGlow)"/>
  <circle cx="1360" cy="140" r="260" fill="url(#orangeGlow)"/>
  <circle cx="1340" cy="840" r="280" fill="url(#greenGlow)"/>

  <g opacity="0.28">
    <path d="M0 720C220 650 380 650 560 700C740 750 930 790 1160 760C1350 736 1470 700 1600 650V1000H0V720Z" fill="#DDECFD"/>
    <path d="M0 760C180 720 360 715 520 760C670 802 840 840 1040 820C1230 800 1400 760 1600 730V1000H0V760Z" fill="#DDF5E6"/>
  </g>

  <g opacity="0.18" stroke="#0F5CCC" stroke-width="2">
    <path d="M120 610H1480"/>
    <path d="M220 610V320H430V610"/>
    <path d="M475 610V260H760V610"/>
    <path d="M810 610V360H1060V610"/>
    <path d="M1110 610V290H1370V610"/>
    <path d="M290 320V280H360V320"/>
    <path d="M560 260V220H680V260"/>
    <path d="M890 360V320H980V360"/>
    <path d="M1200 290V245H1285V290"/>
  </g>

  <g>
    <rect x="210" y="360" width="220" height="250" rx="24" fill="url(#buildingBlue)" opacity="0.90"/>
    <rect x="460" y="300" width="290" height="310" rx="24" fill="url(#buildingGreen)" opacity="0.88"/>
    <rect x="780" y="390" width="240" height="220" rx="24" fill="url(#buildingOrange)" opacity="0.88"/>
    <rect x="1050" y="330" width="300" height="280" rx="24" fill="#1E7CF2" opacity="0.78"/>
  </g>

  <g opacity="0.18" fill="#FFFFFF">
    <rect x="250" y="405" width="44" height="74" rx="10"/>
    <rect x="310" y="405" width="44" height="74" rx="10"/>
    <rect x="370" y="405" width="44" height="74" rx="10"/>
    <rect x="520" y="345" width="56" height="92" rx="12"/>
    <rect x="594" y="345" width="56" height="92" rx="12"/>
    <rect x="668" y="345" width="56" height="92" rx="12"/>
    <rect x="820" y="430" width="48" height="78" rx="10"/>
    <rect x="882" y="430" width="48" height="78" rx="10"/>
    <rect x="1094" y="380" width="52" height="86" rx="11"/>
    <rect x="1160" y="380" width="52" height="86" rx="11"/>
    <rect x="1226" y="380" width="52" height="86" rx="11"/>
  </g>

  <g opacity="0.15" fill="#0F5CCC">
    <circle cx="1210" cy="160" r="48"/>
    <circle cx="1270" cy="210" r="20"/>
    <circle cx="1308" cy="178" r="14"/>
  </g>

  <g opacity="0.15" fill="#1F9D55">
    <circle cx="205" cy="860" r="56"/>
    <circle cx="258" cy="820" r="16"/>
    <circle cx="290" cy="850" r="10"/>
  </g>
</svg>
